<svg xmlns="http://www.w3.org/2000/svg" version="1.1" xmlns:xlink="http://www.w3.org/1999/xlink" xmlns:svgjs="http://svgjs.com/svgjs" width="1440" height="560" preserveAspectRatio="none" viewBox="0 0 1440 560"><g mask="url(&quot;#SvgjsMask1232&quot;)" fill="none"><rect width="1440" height="560" x="0" y="0" fill="rgba(237, 237, 237, 1)"></rect><use xlink:href="#SvgjsG1241" transform="translate(0, 0)" fill="rgba(223, 223, 223, 1)"></use><use xlink:href="#SvgjsG1241" transform="translate(0, 335.99999999999994)" fill="rgba(223, 223, 223, 1)"></use><use xlink:href="#SvgjsG1241" transform="translate(335.99999999999994, 0)" fill="rgba(223, 223, 223, 1)"></use><use xlink:href="#SvgjsG1241" transform="translate(335.99999999999994, 335.99999999999994)" fill="rgba(223, 223, 223, 1)"></use><use xlink:href="#SvgjsG1241" transform="translate(671.9999999999999, 0)" fill="rgba(223, 223, 223, 1)"></use><use xlink:href="#SvgjsG1241" transform="translate(671.9999999999999, 335.99999999999994)" fill="rgba(223, 223, 223, 1)"></use><use xlink:href="#SvgjsG1241" transform="translate(1007.9999999999998, 0)" fill="rgba(223, 223, 223, 1)"></use><use xlink:href="#SvgjsG1241" transform="translate(1007.9999999999998, 335.99999999999994)" fill="rgba(223, 223, 223, 1)"></use><use xlink:href="#SvgjsG1241" transform="translate(1343.9999999999998, 0)" fill="rgba(223, 223, 223, 1)"></use><use xlink:href="#SvgjsG1241" transform="translate(1343.9999999999998, 335.99999999999994)" fill="rgba(223, 223, 223, 1)"></use></g><defs><mask id="SvgjsMask1232"><rect width="1440" height="560" fill="#ffffff"></rect></mask><g id="SvgjsG1235"><path d="M15.233 9.431c0.295 0 0.569-0.239 0.61-0.532 0 0 0.056-0.411 0.056-0.899s-0.056-0.899-0.056-0.899c-0.041-0.292-0.315-0.531-0.61-0.53h-1.524c-0.295 0-0.602-0.188-0.681-0.418s-0.188-0.967 0.021-1.176l1.078-1.077c0.209-0.209 0.225-0.565 0.036-0.792l-1.268-1.268c-0.227-0.189-0.583-0.173-0.792 0.036l-1.078 1.077c-0.208 0.209-0.556 0.293-0.772 0.187s-0.822-0.552-0.821-0.847V0.767c0-0.295-0.239-0.569-0.531-0.61 0 0-0.411-0.057-0.9-0.056s-0.899 0.057-0.899 0.056c-0.293 0.04-0.532 0.315-0.532 0.61v1.524c0 0.295-0.188 0.601-0.418 0.681s-0.967 0.188-1.176-0.021l-1.078-1.078C3.689 1.665 3.333 1.649 3.107 1.837l-1.268 1.268c-0.189 0.227-0.173 0.583 0.036 0.792l1.077 1.078c0.209 0.209 0.293 0.556 0.187 0.772s-0.552 0.822-0.847 0.822H0.767c-0.295 0-0.569 0.239-0.61 0.531 0 0-0.057 0.411-0.056 0.899s0.057 0.899 0.056 0.9c0.04 0.293 0.315 0.532 0.61 0.532h1.525c0.295 0 0.601 0.188 0.681 0.417 0.079 0.23 0.188 0.967-0.02 1.176l-1.078 1.077C1.667 12.311 1.651 12.667 1.84 12.893l1.267 1.268c0.227 0.189 0.583 0.173 0.792-0.036l1.077-1.077c0.209-0.208 0.556-0.292 0.772-0.187s0.821 0.553 0.822 0.848v1.524c0 0.295 0.239 0.569 0.532 0.61 0 0 0.411 0.057 0.899 0.057s0.899-0.056 0.899-0.057c0.293-0.04 0.531-0.315 0.532-0.609v-1.524c0-0.295 0.188-0.602 0.418-0.681 0.23-0.079 0.967-0.188 1.176 0.021l1.077 1.077c0.209 0.209 0.565 0.225 0.792 0.036l1.268-1.267c0.189-0.227 0.173-0.583-0.036-0.792l-1.078-1.077c-0.209-0.209-0.293-0.557-0.186-0.773 0.106-0.216 0.552-0.822 0.847-0.822h1.525zM8 10.892c-1.597 0-2.891-1.294-2.891-2.892 0-1.596 1.295-2.891 2.891-2.891S10.892 6.404 10.892 8 9.597 10.892 8 10.892z"></path></g><g id="SvgjsG1240"><path d="M15.819 2.872L8 9.063 0.182 2.872z m0 8.863L11.116 8l4.703-3.734zM0.161 4.266l4.702 3.734L0.161 11.735z"></path><path d="M10.255 8.663L8.011 10.434 5.766 8.663 0.182 13.068h15.656z"></path></g><g id="SvgjsG1237"><path d="M1.316 13.81h14.019V3.175H1.316v10.635z m12.302-9.643L9.143 8.635c-0.457 0.459-1.269 0.448-1.735-0.018l-4.444-4.45h10.648z m-11.31 0.693l3.626 3.638-3.637 3.644 0.007-7.278z m0.654 7.97l3.641-3.635 0.156 0.149c0.86 0.818 2.228 0.818 3.049 0l0.156-0.156 3.663 3.644h-10.667z m11.353-0.693L10.677 8.501 14.311 4.862V12.142z" fill-rule="evenodd"></path></g><g id="SvgjsG1236"><path d="M16.012 2.226H8.034V0.013L16.012 0.012z"></path><path d="M7.732 6.485l5.676-5.676 1.797 1.796-5.676 5.678z"></path><path d="M15.997 0.014l0.003 7.978-2.212 0.001-0.003-7.979zM0.4 3.133h2.267v11.6H0.4z m11.132 7.008h2.267V15.067h-2.267z"></path><path d="M0.4 2.226h5.421v2.266H0.4zM0.4 12.8h13.399v2.267H0.4z"></path></g><g id="SvgjsG1234"><path d="M6.22 14.34L0.096 8.212l2.288-2.288 6.124 6.124z"></path><path d="M16.126 4.416L7.47 13.072l-2.44-2.44L13.686 1.976z"></path></g><g id="SvgjsG1239"><path d="M3.536 11.602h4.034c0.389 0.183 3.806 2.583 4.382 2.972l0.011-2.995h-0.022a2.761 2.761 0 0 0 2.422-2.742V3.09c0-1.527-1.234-2.766-2.765-2.765H3.538c-1.531 0-2.766 1.239-2.765 2.765v5.747c0 1.525 1.239 2.766 2.765 2.765z" fill-rule="evenodd"></path></g><g id="SvgjsG1233"><path d="M8 2.022C3.815 2.022 0.422 4.579 0.422 7.733c0 1.544 0.814 2.944 2.135 3.972l0.003 3.427 3.961-1.798c0.479 0.071 0.973 0.11 1.48 0.11 4.185 0 7.578-2.557 7.578-5.711 0-3.154-3.392-5.711-7.577-5.711zM4.81 8.933a1.067 1.067 0 1 1 0-2.133 1.067 1.067 0 0 1 0 2.133z m3.186 0a1.067 1.067 0 1 1 0-2.133 1.067 1.067 0 0 1 0 2.133z m3.143 0c-0.589 0-1.067-0.478-1.067-1.066s0.477-1.067 1.067-1.067 1.067 0.478 1.067 1.067a1.067 1.067 0 0 1-1.067 1.066z"></path></g><g id="SvgjsG1238"><path d="M11.675 13.031H3.563V2.436h8.112v10.595z m-4.054 1.54a0.457 0.457 0 1 1 0-0.912 0.457 0.457 0 0 1 0 0.912zM6.921 1.287h1.395c0.196 0 0.196 0.356 0 0.356h-1.397c-0.199 0-0.199-0.356 0-0.356zM11.495 0.409H3.744C3.413 0.409 3.143 0.761 3.143 1.191V14.276c0 0.427 0.267 0.779 0.601 0.778h7.751c0.332 0 0.604-0.35 0.605-0.778V1.191c0-0.432-0.272-0.782-0.605-0.782z" fill-rule="evenodd"></path></g><g id="SvgjsG1241"><use xlink:href="#SvgjsG1233" transform="translate(0, 0) scale(1.4)" fill="rgba(223, 223, 223, 1)"></use><use xlink:href="#SvgjsG1234" transform="translate(0, 33.599999999999994) scale(1.4)" fill="rgba(223, 223, 223, 1)"></use><use xlink:href="#SvgjsG1235" transform="translate(0, 67.19999999999999) scale(1.4)" fill="rgba(223, 223, 223, 1)"></use><use xlink:href="#SvgjsG1235" transform="translate(0, 100.79999999999998) scale(1.4)" fill="rgba(223, 223, 223, 1)"></use><use xlink:href="#SvgjsG1236" transform="translate(0, 134.39999999999998) scale(1.4)" fill="rgba(223, 223, 223, 1)"></use><use xlink:href="#SvgjsG1237" transform="translate(0, 167.99999999999997) scale(1.4)" fill="rgba(223, 223, 223, 1)"></use><use xlink:href="#SvgjsG1237" transform="translate(0, 201.59999999999997) scale(1.4)" fill="rgba(223, 223, 223, 1)"></use><use xlink:href="#SvgjsG1235" transform="translate(0, 235.19999999999996) scale(1.4)" fill="rgba(223, 223, 223, 1)"></use><use xlink:href="#SvgjsG1238" transform="translate(0, 268.79999999999995) scale(1.4)" fill="rgba(223, 223, 223, 1)"></use><use xlink:href="#SvgjsG1237" transform="translate(0, 302.4) scale(1.4)" fill="rgba(223, 223, 223, 1)"></use><use xlink:href="#SvgjsG1239" transform="translate(33.599999999999994, 0) scale(1.4)" fill="rgba(223, 223, 223, 1)"></use><use xlink:href="#SvgjsG1235" transform="translate(33.599999999999994, 33.599999999999994) scale(1.4)" fill="rgba(223, 223, 223, 1)"></use><use xlink:href="#SvgjsG1234" transform="translate(33.599999999999994, 67.19999999999999) scale(1.4)" fill="rgba(223, 223, 223, 1)"></use><use xlink:href="#SvgjsG1238" transform="translate(33.599999999999994, 100.79999999999998) scale(1.4)" fill="rgba(223, 223, 223, 1)"></use><use xlink:href="#SvgjsG1237" transform="translate(33.599999999999994, 134.39999999999998) scale(1.4)" fill="rgba(223, 223, 223, 1)"></use><use xlink:href="#SvgjsG1236" transform="translate(33.599999999999994, 167.99999999999997) scale(1.4)" fill="rgba(223, 223, 223, 1)"></use><use xlink:href="#SvgjsG1236" transform="translate(33.599999999999994, 201.59999999999997) scale(1.4)" fill="rgba(223, 223, 223, 1)"></use><use xlink:href="#SvgjsG1240" transform="translate(33.599999999999994, 235.19999999999996) scale(1.4)" fill="rgba(223, 223, 223, 1)"></use><use xlink:href="#SvgjsG1235" transform="translate(33.599999999999994, 268.79999999999995) scale(1.4)" fill="rgba(223, 223, 223, 1)"></use><use xlink:href="#SvgjsG1238" transform="translate(33.599999999999994, 302.4) scale(1.4)" fill="rgba(223, 223, 223, 1)"></use><use xlink:href="#SvgjsG1233" transform="translate(67.19999999999999, 0) scale(1.4)" fill="rgba(223, 223, 223, 1)"></use><use xlink:href="#SvgjsG1239" transform="translate(67.19999999999999, 33.599999999999994) scale(1.4)" fill="rgba(223, 223, 223, 1)"></use><use xlink:href="#SvgjsG1235" transform="translate(67.19999999999999, 67.19999999999999) scale(1.4)" fill="rgba(223, 223, 223, 1)"></use><use xlink:href="#SvgjsG1239" transform="translate(67.19999999999999, 100.79999999999998) scale(1.4)" fill="rgba(223, 223, 223, 1)"></use><use xlink:href="#SvgjsG1240" transform="translate(67.19999999999999, 134.39999999999998) scale(1.4)" fill="rgba(223, 223, 223, 1)"></use><use xlink:href="#SvgjsG1238" transform="translate(67.19999999999999, 167.99999999999997) scale(1.4)" fill="rgba(223, 223, 223, 1)"></use><use xlink:href="#SvgjsG1235" transform="translate(67.19999999999999, 201.59999999999997) scale(1.4)" fill="rgba(223, 223, 223, 1)"></use><use xlink:href="#SvgjsG1239" transform="translate(67.19999999999999, 235.19999999999996) scale(1.4)" fill="rgba(223, 223, 223, 1)"></use><use xlink:href="#SvgjsG1237" transform="translate(67.19999999999999, 268.79999999999995) scale(1.4)" fill="rgba(223, 223, 223, 1)"></use><use xlink:href="#SvgjsG1236" transform="translate(67.19999999999999, 302.4) scale(1.4)" fill="rgba(223, 223, 223, 1)"></use><use xlink:href="#SvgjsG1235" transform="translate(100.79999999999998, 0) scale(1.4)" fill="rgba(223, 223, 223, 1)"></use><use xlink:href="#SvgjsG1237" transform="translate(100.79999999999998, 33.599999999999994) scale(1.4)" fill="rgba(223, 223, 223, 1)"></use><use xlink:href="#SvgjsG1236" transform="translate(100.79999999999998, 67.19999999999999) scale(1.4)" fill="rgba(223, 223, 223, 1)"></use><use xlink:href="#SvgjsG1233" transform="translate(100.79999999999998, 100.79999999999998) scale(1.4)" fill="rgba(223, 223, 223, 1)"></use><use xlink:href="#SvgjsG1233" transform="translate(100.79999999999998, 134.39999999999998) scale(1.4)" fill="rgba(223, 223, 223, 1)"></use><use xlink:href="#SvgjsG1233" transform="translate(100.79999999999998, 167.99999999999997) scale(1.4)" fill="rgba(223, 223, 223, 1)"></use><use xlink:href="#SvgjsG1234" transform="translate(100.79999999999998, 201.59999999999997) scale(1.4)" fill="rgba(223, 223, 223, 1)"></use><use xlink:href="#SvgjsG1234" transform="translate(100.79999999999998, 235.19999999999996) scale(1.4)" fill="rgba(223, 223, 223, 1)"></use><use xlink:href="#SvgjsG1240" transform="translate(100.79999999999998, 268.79999999999995) scale(1.4)" fill="rgba(223, 223, 223, 1)"></use><use xlink:href="#SvgjsG1239" transform="translate(100.79999999999998, 302.4) scale(1.4)" fill="rgba(223, 223, 223, 1)"></use><use xlink:href="#SvgjsG1233" transform="translate(134.39999999999998, 0) scale(1.4)" fill="rgba(223, 223, 223, 1)"></use><use xlink:href="#SvgjsG1234" transform="translate(134.39999999999998, 33.599999999999994) scale(1.4)" fill="rgba(223, 223, 223, 1)"></use><use xlink:href="#SvgjsG1235" transform="translate(134.39999999999998, 67.19999999999999) scale(1.4)" fill="rgba(223, 223, 223, 1)"></use><use xlink:href="#SvgjsG1238" transform="translate(134.39999999999998, 100.79999999999998) scale(1.4)" fill="rgba(223, 223, 223, 1)"></use><use xlink:href="#SvgjsG1239" transform="translate(134.39999999999998, 134.39999999999998) scale(1.4)" fill="rgba(223, 223, 223, 1)"></use><use xlink:href="#SvgjsG1235" transform="translate(134.39999999999998, 167.99999999999997) scale(1.4)" fill="rgba(223, 223, 223, 1)"></use><use xlink:href="#SvgjsG1234" transform="translate(134.39999999999998, 201.59999999999997) scale(1.4)" fill="rgba(223, 223, 223, 1)"></use><use xlink:href="#SvgjsG1233" transform="translate(134.39999999999998, 235.19999999999996) scale(1.4)" fill="rgba(223, 223, 223, 1)"></use><use xlink:href="#SvgjsG1237" transform="translate(134.39999999999998, 268.79999999999995) scale(1.4)" fill="rgba(223, 223, 223, 1)"></use><use xlink:href="#SvgjsG1236" transform="translate(134.39999999999998, 302.4) scale(1.4)" fill="rgba(223, 223, 223, 1)"></use><use xlink:href="#SvgjsG1237" transform="translate(167.99999999999997, 0) scale(1.4)" fill="rgba(223, 223, 223, 1)"></use><use xlink:href="#SvgjsG1239" transform="translate(167.99999999999997, 33.599999999999994) scale(1.4)" fill="rgba(223, 223, 223, 1)"></use><use xlink:href="#SvgjsG1235" transform="translate(167.99999999999997, 67.19999999999999) scale(1.4)" fill="rgba(223, 223, 223, 1)"></use><use xlink:href="#SvgjsG1240" transform="translate(167.99999999999997, 100.79999999999998) scale(1.4)" fill="rgba(223, 223, 223, 1)"></use><use xlink:href="#SvgjsG1235" transform="translate(167.99999999999997, 134.39999999999998) scale(1.4)" fill="rgba(223, 223, 223, 1)"></use><use xlink:href="#SvgjsG1236" transform="translate(167.99999999999997, 167.99999999999997) scale(1.4)" fill="rgba(223, 223, 223, 1)"></use><use xlink:href="#SvgjsG1234" transform="translate(167.99999999999997, 201.59999999999997) scale(1.4)" fill="rgba(223, 223, 223, 1)"></use><use xlink:href="#SvgjsG1238" transform="translate(167.99999999999997, 235.19999999999996) scale(1.4)" fill="rgba(223, 223, 223, 1)"></use><use xlink:href="#SvgjsG1240" transform="translate(167.99999999999997, 268.79999999999995) scale(1.4)" fill="rgba(223, 223, 223, 1)"></use><use xlink:href="#SvgjsG1237" transform="translate(167.99999999999997, 302.4) scale(1.4)" fill="rgba(223, 223, 223, 1)"></use><use xlink:href="#SvgjsG1235" transform="translate(201.59999999999997, 0) scale(1.4)" fill="rgba(223, 223, 223, 1)"></use><use xlink:href="#SvgjsG1234" transform="translate(201.59999999999997, 33.599999999999994) scale(1.4)" fill="rgba(223, 223, 223, 1)"></use><use xlink:href="#SvgjsG1239" transform="translate(201.59999999999997, 67.19999999999999) scale(1.4)" fill="rgba(223, 223, 223, 1)"></use><use xlink:href="#SvgjsG1236" transform="translate(201.59999999999997, 100.79999999999998) scale(1.4)" fill="rgba(223, 223, 223, 1)"></use><use xlink:href="#SvgjsG1240" transform="translate(201.59999999999997, 134.39999999999998) scale(1.4)" fill="rgba(223, 223, 223, 1)"></use><use xlink:href="#SvgjsG1237" transform="translate(201.59999999999997, 167.99999999999997) scale(1.4)" fill="rgba(223, 223, 223, 1)"></use><use xlink:href="#SvgjsG1240" transform="translate(201.59999999999997, 201.59999999999997) scale(1.4)" fill="rgba(223, 223, 223, 1)"></use><use xlink:href="#SvgjsG1239" transform="translate(201.59999999999997, 235.19999999999996) scale(1.4)" fill="rgba(223, 223, 223, 1)"></use><use xlink:href="#SvgjsG1239" transform="translate(201.59999999999997, 268.79999999999995) scale(1.4)" fill="rgba(223, 223, 223, 1)"></use><use xlink:href="#SvgjsG1235" transform="translate(201.59999999999997, 302.4) scale(1.4)" fill="rgba(223, 223, 223, 1)"></use><use xlink:href="#SvgjsG1236" transform="translate(235.19999999999996, 0) scale(1.4)" fill="rgba(223, 223, 223, 1)"></use><use xlink:href="#SvgjsG1233" transform="translate(235.19999999999996, 33.599999999999994) scale(1.4)" fill="rgba(223, 223, 223, 1)"></use><use xlink:href="#SvgjsG1237" transform="translate(235.19999999999996, 67.19999999999999) scale(1.4)" fill="rgba(223, 223, 223, 1)"></use><use xlink:href="#SvgjsG1235" transform="translate(235.19999999999996, 100.79999999999998) scale(1.4)" fill="rgba(223, 223, 223, 1)"></use><use xlink:href="#SvgjsG1239" transform="translate(235.19999999999996, 134.39999999999998) scale(1.4)" fill="rgba(223, 223, 223, 1)"></use><use xlink:href="#SvgjsG1240" transform="translate(235.19999999999996, 167.99999999999997) scale(1.4)" fill="rgba(223, 223, 223, 1)"></use><use xlink:href="#SvgjsG1238" transform="translate(235.19999999999996, 201.59999999999997) scale(1.4)" fill="rgba(223, 223, 223, 1)"></use><use xlink:href="#SvgjsG1239" transform="translate(235.19999999999996, 235.19999999999996) scale(1.4)" fill="rgba(223, 223, 223, 1)"></use><use xlink:href="#SvgjsG1233" transform="translate(235.19999999999996, 268.79999999999995) scale(1.4)" fill="rgba(223, 223, 223, 1)"></use><use xlink:href="#SvgjsG1238" transform="translate(235.19999999999996, 302.4) scale(1.4)" fill="rgba(223, 223, 223, 1)"></use><use xlink:href="#SvgjsG1237" transform="translate(268.79999999999995, 0) scale(1.4)" fill="rgba(223, 223, 223, 1)"></use><use xlink:href="#SvgjsG1237" transform="translate(268.79999999999995, 33.599999999999994) scale(1.4)" fill="rgba(223, 223, 223, 1)"></use><use xlink:href="#SvgjsG1236" transform="translate(268.79999999999995, 67.19999999999999) scale(1.4)" fill="rgba(223, 223, 223, 1)"></use><use xlink:href="#SvgjsG1237" transform="translate(268.79999999999995, 100.79999999999998) scale(1.4)" fill="rgba(223, 223, 223, 1)"></use><use xlink:href="#SvgjsG1239" transform="translate(268.79999999999995, 134.39999999999998) scale(1.4)" fill="rgba(223, 223, 223, 1)"></use><use xlink:href="#SvgjsG1235" transform="translate(268.79999999999995, 167.99999999999997) scale(1.4)" fill="rgba(223, 223, 223, 1)"></use><use xlink:href="#SvgjsG1234" transform="translate(268.79999999999995, 201.59999999999997) scale(1.4)" fill="rgba(223, 223, 223, 1)"></use><use xlink:href="#SvgjsG1240" transform="translate(268.79999999999995, 235.19999999999996) scale(1.4)" fill="rgba(223, 223, 223, 1)"></use><use xlink:href="#SvgjsG1235" transform="translate(268.79999999999995, 268.79999999999995) scale(1.4)" fill="rgba(223, 223, 223, 1)"></use><use xlink:href="#SvgjsG1235" transform="translate(268.79999999999995, 302.4) scale(1.4)" fill="rgba(223, 223, 223, 1)"></use><use xlink:href="#SvgjsG1237" transform="translate(302.4, 0) scale(1.4)" fill="rgba(223, 223, 223, 1)"></use><use xlink:href="#SvgjsG1234" transform="translate(302.4, 33.599999999999994) scale(1.4)" fill="rgba(223, 223, 223, 1)"></use><use xlink:href="#SvgjsG1237" transform="translate(302.4, 67.19999999999999) scale(1.4)" fill="rgba(223, 223, 223, 1)"></use><use xlink:href="#SvgjsG1236" transform="translate(302.4, 100.79999999999998) scale(1.4)" fill="rgba(223, 223, 223, 1)"></use><use xlink:href="#SvgjsG1239" transform="translate(302.4, 134.39999999999998) scale(1.4)" fill="rgba(223, 223, 223, 1)"></use><use xlink:href="#SvgjsG1236" transform="translate(302.4, 167.99999999999997) scale(1.4)" fill="rgba(223, 223, 223, 1)"></use><use xlink:href="#SvgjsG1236" transform="translate(302.4, 201.59999999999997) scale(1.4)" fill="rgba(223, 223, 223, 1)"></use><use xlink:href="#SvgjsG1236" transform="translate(302.4, 235.19999999999996) scale(1.4)" fill="rgba(223, 223, 223, 1)"></use><use xlink:href="#SvgjsG1235" transform="translate(302.4, 268.79999999999995) scale(1.4)" fill="rgba(223, 223, 223, 1)"></use><use xlink:href="#SvgjsG1236" transform="translate(302.4, 302.4) scale(1.4)" fill="rgba(223, 223, 223, 1)"></use></g></defs></svg>