<svg xmlns="http://www.w3.org/2000/svg" version="1.1" xmlns:xlink="http://www.w3.org/1999/xlink" xmlns:svgjs="http://svgjs.com/svgjs" width="1440" height="560" preserveAspectRatio="none" viewBox="0 0 1440 560"><g mask="url(&quot;#SvgjsMask1018&quot;)" fill="none"><rect width="1440" height="560" x="0" y="0" fill="rgba(68, 68, 68, 1)"></rect><path d="M1134.6404498949241 340.9232163663716L1067.4697976369769 203.20297000051522 929.7495512711205 270.3736222584625 996.9202035290677 408.0938686243189z" fill="rgba(51, 51, 51, 0.7)" class="triangle-float3"></path><path d="M1242.0782950035684 253.58638104869982L1320.20399131248 265.96027573355144 1299.7019851853015 142.58478392775854z" fill="rgba(51, 51, 51, 0.7)" class="triangle-float1"></path><path d="M516.3641148855771 211.97076235224304L459.5459866092028 229.34180742938452 514.0116183631022 305.8834773053752z" fill="rgba(51, 51, 51, 0.7)" class="triangle-float3"></path><path d="M475.4334131966285 287.9045127570327L390.0841415503596 280.4374190477896 382.6170478411165 365.7866906940585 467.9663194873854 373.2537844033016z" fill="rgba(51, 51, 51, 0.7)" class="triangle-float3"></path><path d="M825.6143716701032 28.334803183900767L739.479867848942 142.63915044261617 853.7842151076574 228.77365426377736 939.9187189288186 114.46930700506195z" fill="rgba(51, 51, 51, 0.7)" class="triangle-float3"></path><path d="M718.6099619288681 373.7183012529506L823.954018064386 422.8410413700527 873.0767581814881 317.49698523453475 767.7327020459702 268.3742451174326z" fill="rgba(51, 51, 51, 0.7)" class="triangle-float3"></path><path d="M196.77575216213793 472.9176282493105L266.26284065774763 416.64809347235735 147.11499424451307 340.5522281174194z" fill="rgba(51, 51, 51, 0.7)" class="triangle-float2"></path><path d="M105.55545102966208 535.1882804117422L151.40316738926373 375.29829216214614-54.33453721993395 489.34056405214056z" fill="rgba(51, 51, 51, 0.7)" class="triangle-float3"></path><path d="M377.0541439164307 571.3682791649763L530.5364847157787 636.5176675671994 595.6858731180018 483.0353267678515 442.2035323186538 417.88593836562836z" fill="rgba(51, 51, 51, 0.7)" class="triangle-float3"></path><path d="M1246.294318481847 278.07730333328954L1282.9684926246043 378.83876866766155 1347.055783816219 241.40312919053235z" fill="rgba(51, 51, 51, 0.7)" class="triangle-float3"></path><path d="M501.1030177167753 54.256070740572966L382.97465081374446-41.40239464490293 405.4445523312994 172.38443764360383z" fill="rgba(51, 51, 51, 0.7)" class="triangle-float2"></path><path d="M220.45428638051374 86.02824426166569L340.02329477730837 77.66716469723099 331.66221521287366-41.901843699563656 212.09320681607903-33.54076413512895z" fill="rgba(51, 51, 51, 0.7)" class="triangle-float3"></path><path d="M310.8559940857542 171.02395801625954L213.35394924808105 265.1805882367365 307.5105794685581 362.6826330744097 405.01262430623126 268.5260028539327z" fill="rgba(51, 51, 51, 0.7)" class="triangle-float3"></path><path d="M221.22277977080074 517.4650038782338L179.33534936398962 395.815072852884 99.57284874545094 559.352434285045z" fill="rgba(51, 51, 51, 0.7)" class="triangle-float2"></path><path d="M1480.6262289657332 448.5522499952934L1391.9777573496083 426.44970361214456 1369.8752109664592 515.0981752282695 1458.5236825825843 537.2007216114183z" fill="rgba(51, 51, 51, 0.7)" class="triangle-float2"></path><path d="M568.8443994948262 682.1271517824741L666.4457538231198 557.2031150192629 541.5217170599086 459.6017606909693 443.920362731615 584.5257974541805z" fill="rgba(51, 51, 51, 0.7)" class="triangle-float2"></path><path d="M292.6945111472499 129.0820747083449L399.50527025936907 48.59439458485356 212.20683102375858 22.27131559622572z" fill="rgba(51, 51, 51, 0.7)" class="triangle-float3"></path><path d="M913.4500113320037 288.55090614406583L810.6835059074247 345.51531028708007 867.6479100504389 448.28181571165914 970.4144154750179 391.3174115686449z" fill="rgba(51, 51, 51, 0.7)" class="triangle-float2"></path></g><defs><mask id="SvgjsMask1018"><rect width="1440" height="560" fill="#ffffff"></rect></mask><style>
            @keyframes float1 {
                0%{transform: translate(0, 0)}
                50%{transform: translate(-10px, 0)}
                100%{transform: translate(0, 0)}
            }

            .triangle-float1 {
                animation: float1 5s infinite;
            }

            @keyframes float2 {
                0%{transform: translate(0, 0)}
                50%{transform: translate(-5px, -5px)}
                100%{transform: translate(0, 0)}
            }

            .triangle-float2 {
                animation: float2 4s infinite;
            }

            @keyframes float3 {
                0%{transform: translate(0, 0)}
                50%{transform: translate(0, -10px)}
                100%{transform: translate(0, 0)}
            }

            .triangle-float3 {
                animation: float3 6s infinite;
            }
        </style></defs></svg>