<svg xmlns="http://www.w3.org/2000/svg" version="1.1" xmlns:xlink="http://www.w3.org/1999/xlink" xmlns:svgjs="http://svgjs.com/svgjs" width="1440" height="560" preserveAspectRatio="none" viewBox="0 0 1440 560"><g mask="url(&quot;#SvgjsMask1018&quot;)" fill="none"><rect width="1440" height="560" x="0" y="0" fill="rgba(68, 68, 68, 1)"></rect><path d="M1060.184,626.072C1105.552,628.507,1158.637,627.063,1181.449,587.772C1204.311,548.395,1177.273,502.735,1154.777,463.147C1131.88,422.853,1106.529,374.202,1060.184,374.377C1013.983,374.552,987.467,422.525,966.822,463.857C948.903,499.732,939.542,541.108,959.546,575.864C979.589,610.689,1020.061,623.919,1060.184,626.072" fill="rgba(93, 76, 76, 0.82)" class="triangle-float1"></path><path d="M514.767,745.02C574.699,746.412,631.712,715.379,661.283,663.232C690.484,611.738,685.933,548.152,655.041,497.655C625.479,449.332,571.392,422.13,514.767,423.733C460.83,425.259,414.685,458.553,387.603,505.223C360.405,552.092,354.198,608.815,379.586,656.689C406.615,707.658,457.091,743.68,514.767,745.02" fill="rgba(93, 76, 76, 0.82)" class="triangle-float3"></path><path d="M1037.429,175.952C1067.979,177.41,1097.963,162.395,1113.026,135.776C1127.889,109.51,1124.71,76.507,1107.876,51.458C1092.757,28.96,1064.529,22.726,1037.429,23.284C1011.518,23.818,985.257,32.089,971.837,54.26C957.987,77.143,960.682,105.568,973.373,129.113C986.824,154.069,1009.111,174.601,1037.429,175.952" fill="rgba(93, 76, 76, 0.82)" class="triangle-float2"></path><path d="M785.682,508.902C839.415,508.712,895.653,496.196,924.41,450.806C954.965,402.579,955.603,338.375,923.732,291.008C894.686,247.841,837.636,241.838,785.682,244.632C739.565,247.112,697.074,266.364,671.159,304.592C641.195,348.792,619.132,405.214,645.242,451.794C671.726,499.042,731.518,509.094,785.682,508.902" fill="rgba(93, 76, 76, 0.82)" class="triangle-float2"></path><path d="M1368.035,171.153C1388.739,170.833,1402.194,151.617,1411.981,133.37C1421.091,116.386,1426.101,96.712,1417.103,79.668C1407.55,61.573,1388.495,50.419,1368.035,50.128C1347.06,49.829,1326.563,59.837,1316.485,78.235C1306.741,96.022,1311.833,117.03,1321.672,134.765C1331.887,153.177,1346.982,171.478,1368.035,171.153" fill="rgba(93, 76, 76, 0.82)" class="triangle-float2"></path><path d="M569.985,364.456C629.681,363.484,680.73,323.75,708.43,270.86C734.181,221.691,726.854,164.433,700.256,115.717C672.303,64.519,628.296,18.864,569.985,17.29C509.427,15.656,456.83,55.648,426.938,108.34C397.464,160.295,394.376,223.35,423.503,275.5C453.359,328.954,508.766,365.453,569.985,364.456" fill="rgba(93, 76, 76, 0.82)" class="triangle-float3"></path></g><defs><mask id="SvgjsMask1018"><rect width="1440" height="560" fill="#ffffff"></rect></mask><style>
            @keyframes float1 {
                0%{transform: translate(0, 0)}
                50%{transform: translate(-10px, 0)}
                100%{transform: translate(0, 0)}
            }

            .triangle-float1 {
                animation: float1 5s infinite;
            }

            @keyframes float2 {
                0%{transform: translate(0, 0)}
                50%{transform: translate(-5px, -5px)}
                100%{transform: translate(0, 0)}
            }

            .triangle-float2 {
                animation: float2 4s infinite;
            }

            @keyframes float3 {
                0%{transform: translate(0, 0)}
                50%{transform: translate(0, -10px)}
                100%{transform: translate(0, 0)}
            }

            .triangle-float3 {
                animation: float3 6s infinite;
            }
        </style></defs></svg>