<svg xmlns="http://www.w3.org/2000/svg" version="1.1" xmlns:xlink="http://www.w3.org/1999/xlink" xmlns:svgjs="http://svgjs.com/svgjs" width="1440" height="560" preserveAspectRatio="none" viewBox="0 0 1440 560"><g mask="url(&quot;#SvgjsMask1006&quot;)" fill="none"><rect width="1440" height="560" x="0" y="0" fill="rgba(68, 68, 68, 1)"></rect><path d="M681.311,611.73C740.933,613.481,782.471,559.769,812.167,508.039C841.696,456.601,862.246,396.426,835.217,343.632C806.092,286.742,745.203,250.854,681.311,252.444C619.82,253.974,566.565,295.438,540.127,350.977C516.863,399.849,537.351,453.128,563.123,500.726C590.705,551.666,623.408,610.03,681.311,611.73" fill="rgba(93, 76, 76, 0.82)" class="triangle-float2"></path><path d="M1197.835,393.378C1218.78,392.2,1237.554,381.665,1248.561,363.806C1260.193,344.933,1264.813,321.442,1254.15,302.006C1243.132,281.922,1220.743,271.258,1197.835,271.344C1175.081,271.429,1154.294,283.123,1142.244,302.424C1129.383,323.024,1123.499,349.404,1136.164,370.125C1148.444,390.217,1174.325,394.7,1197.835,393.378" fill="rgba(93, 76, 76, 0.82)" class="triangle-float3"></path><path d="M1182.251,232.076C1199.437,232.181,1218.14,230.39,1227.605,216.045C1237.869,200.489,1237.335,179.552,1227.247,163.881C1217.854,149.29,1199.602,145.35,1182.251,145.594C1165.428,145.831,1148.416,150.915,1139.394,165.117C1129.738,180.317,1128.136,200.332,1137.844,215.499C1146.973,229.763,1165.316,231.973,1182.251,232.076" fill="rgba(93, 76, 76, 0.82)" class="triangle-float2"></path><path d="M540.275,610.735C572.707,609.559,596.211,584.145,613.089,556.426C630.91,527.159,646.078,492.798,630.747,462.153C614.124,428.926,577.427,410.569,540.275,410.878C503.65,411.183,469.934,431.495,452.377,463.639C435.497,494.544,439.636,531.833,457.7,562.062C475.266,591.458,506.053,611.976,540.275,610.735" fill="rgba(93, 76, 76, 0.82)" class="triangle-float3"></path><path d="M46.807,157.087C59.715,156.05,71.05,149.517,77.969,138.57C85.473,126.698,90.324,111.67,83.144,99.599C76.069,87.705,60.645,85.975,46.807,86.178C33.431,86.374,20.002,89.722,12.269,100.638C3.129,113.54,-2.679,130.897,5.573,144.384C13.618,157.533,31.441,158.321,46.807,157.087" fill="rgba(93, 76, 76, 0.82)" class="triangle-float1"></path><path d="M1385.16,173.459C1406.567,173.7,1420.252,153.398,1431.029,134.9C1441.909,116.224,1452.954,94.234,1442.258,75.452C1431.496,56.554,1406.907,54.475,1385.16,54.355C1363.12,54.233,1337.651,55.543,1326.961,74.817C1316.438,93.789,1330.022,115.202,1341.046,133.887C1351.804,152.122,1363.989,173.221,1385.16,173.459" fill="rgba(93, 76, 76, 0.82)" class="triangle-float2"></path><path d="M102.449,468.545C134.647,468.859,163.927,451.674,181.018,424.384C199.319,395.162,208.3,357.708,190.273,328.316C172.811,299.845,135.818,294.869,102.449,296.28C72.016,297.567,42.283,309.118,26.611,335.237C10.501,362.086,11.008,395.661,26.49,422.876C42.147,450.399,70.786,468.236,102.449,468.545" fill="rgba(93, 76, 76, 0.82)" class="triangle-float3"></path><path d="M288.505,386.726C313.89,386.056,338.658,375.984,351.706,354.199C365.101,331.834,363.773,304.33,351.69,281.23C338.565,256.139,316.79,232.027,288.505,233.378C261.516,234.667,248.127,263.202,234.977,286.806C222.351,309.469,206.995,334.829,219.246,357.697C231.916,381.347,261.684,387.434,288.505,386.726" fill="rgba(93, 76, 76, 0.82)" class="triangle-float3"></path><path d="M487.999,216.781C508.073,217.617,529.917,213.962,540.629,196.965C551.9,179.08,548.403,156.115,537.735,137.864C527.175,119.799,508.916,106.345,487.999,106.931C467.907,107.494,452.282,122.763,442.87,140.523C434.112,157.05,432.928,176.779,442.454,192.875C451.813,208.69,469.638,216.016,487.999,216.781" fill="rgba(93, 76, 76, 0.82)" class="triangle-float1"></path><path d="M1153.638,353.655C1208.458,353.07,1256.708,321.422,1285.121,274.536C1314.723,225.687,1327.366,164.271,1298.145,115.193C1269.442,66.984,1209.569,49.257,1153.638,53.702C1104.975,57.57,1069.52,93.707,1044.101,135.383C1017.213,179.467,994.044,231.241,1017.205,277.393C1042.251,327.302,1097.8,354.25,1153.638,353.655" fill="rgba(93, 76, 76, 0.82)" class="triangle-float1"></path><path d="M1106.876,443.47C1134.803,443.547,1159.236,426.438,1173.349,402.339C1187.628,377.956,1192.32,347.231,1177.226,323.344C1162.899,300.671,1133.621,295.134,1106.876,297.142C1083.796,298.875,1065.027,313.092,1052.717,332.692C1039.366,353.949,1030.008,379.424,1041.033,401.975C1053.245,426.955,1079.071,443.394,1106.876,443.47" fill="rgba(93, 76, 76, 0.82)" class="triangle-float3"></path><path d="M285.211,71.14C310.416,72.547,336.455,62.559,348.936,40.616C361.306,18.869,354.433,-7.254,342.221,-29.09C329.637,-51.592,310.993,-73.249,285.211,-73.335C259.325,-73.421,238.902,-52.731,227.542,-29.471C217.537,-8.987,221.389,14.349,232.726,34.127C244.136,54.034,262.302,69.861,285.211,71.14" fill="rgba(93, 76, 76, 0.82)" class="triangle-float1"></path></g><defs><mask id="SvgjsMask1006"><rect width="1440" height="560" fill="#ffffff"></rect></mask><style>
            @keyframes float1 {
                0%{transform: translate(0, 0)}
                50%{transform: translate(-10px, 0)}
                100%{transform: translate(0, 0)}
            }

            .triangle-float1 {
                animation: float1 5s infinite;
            }

            @keyframes float2 {
                0%{transform: translate(0, 0)}
                50%{transform: translate(-5px, -5px)}
                100%{transform: translate(0, 0)}
            }

            .triangle-float2 {
                animation: float2 4s infinite;
            }

            @keyframes float3 {
                0%{transform: translate(0, 0)}
                50%{transform: translate(0, -10px)}
                100%{transform: translate(0, 0)}
            }

            .triangle-float3 {
                animation: float3 6s infinite;
            }
        </style></defs></svg>