<svg xmlns="http://www.w3.org/2000/svg" version="1.1" xmlns:xlink="http://www.w3.org/1999/xlink" xmlns:svgjs="http://svgjs.com/svgjs" width="1440" height="560" preserveAspectRatio="none" viewBox="0 0 1440 560"><g mask="url(&quot;#SvgjsMask1032&quot;)" fill="none"><rect width="1440" height="560" x="0" y="0" fill="rgba(255, 255, 255, 1)"></rect><path d="M1221.331,331.194C1249.194,331.34,1280.225,328.493,1294.672,304.668C1309.484,280.241,1299.457,250.2,1285.586,225.227C1271.181,199.292,1250.989,173.348,1221.331,172.626C1190.769,171.882,1166.119,195.157,1151.415,221.959C1137.328,247.636,1133.516,279.241,1149.305,303.909C1164.139,327.085,1193.814,331.05,1221.331,331.194" fill="rgba(151, 57, 57, 0.4)" class="triangle-float2"></path><path d="M475.57,524.76C503.986,524.123,529.102,509.127,544.687,485.358C562.202,458.646,574.873,425.002,559.246,397.144C543.393,368.883,507.974,362.277,475.57,362.145C442.866,362.011,407.338,368.299,390.703,396.456C373.86,424.965,382.603,460.964,400.871,488.582C417.23,513.314,445.924,525.424,475.57,524.76" fill="rgba(151, 57, 57, 0.4)" class="triangle-float2"></path><path d="M774.747,289.845C802.739,289.673,824.442,267.669,837.482,242.899C849.554,219.968,849.971,193.161,837.647,170.365C824.652,146.328,802.048,128,774.747,126.853C745.475,125.624,716.068,138.979,701.978,164.666C688.321,189.564,696.394,219.126,710.666,243.677C724.847,268.072,746.531,290.018,774.747,289.845" fill="rgba(151, 57, 57, 0.4)" class="triangle-float3"></path><path d="M330.132,287.064C383.406,290.973,437.741,267.538,464.377,221.236C490.952,175.039,482.211,117.409,453.589,72.452C427.075,30.807,379.472,12.081,330.132,10.376C276.957,8.538,216.149,16.512,190.953,63.375C166.467,108.917,198.842,159.855,226.158,203.758C251.304,244.173,282.661,283.581,330.132,287.064" fill="rgba(151, 57, 57, 0.4)" class="triangle-float1"></path><path d="M1141.506,242.597C1189.77,244.105,1220.655,196.822,1244.102,154.608C1266.645,114.021,1284.346,66.506,1261.877,25.878C1238.865,-15.73,1189.054,-30.987,1141.506,-30.899C1094.138,-30.811,1043.531,-15.821,1021.907,26.323C1001.476,66.141,1027.785,109.363,1049.443,148.527C1072.2,189.679,1094.504,241.129,1141.506,242.597" fill="rgba(151, 57, 57, 0.4)" class="triangle-float3"></path><path d="M1130.765,603.853C1157.12,604.661,1182.573,591.354,1195.473,568.358C1208.125,545.804,1204.924,518.026,1191.213,496.1C1178.326,475.491,1155.069,464.509,1130.765,464.876C1107.123,465.233,1085.313,477.455,1073.397,497.878C1061.385,518.465,1061.24,543.628,1072.587,564.589C1084.525,586.641,1105.701,603.084,1130.765,603.853" fill="rgba(151, 57, 57, 0.4)" class="triangle-float3"></path><path d="M151.531,497.134C179.945,498.65,209.739,489.937,224.731,465.753C240.42,440.446,239.328,407.095,222.635,382.439C207.552,360.161,178.385,355.99,151.531,357.635C127.957,359.079,106.251,370.082,94.065,390.313C81.461,411.237,79.141,437.092,90.713,458.604C102.899,481.255,125.847,495.764,151.531,497.134" fill="rgba(151, 57, 57, 0.4)" class="triangle-float2"></path><path d="M1258.458,520.439C1320.511,519.969,1375.765,481.552,1404.638,426.623C1431.644,375.245,1425.575,312.584,1392.948,264.579C1363.915,221.862,1310.05,209.116,1258.458,211.547C1211.61,213.754,1170.911,237.702,1144.261,276.295C1112.443,322.373,1084.665,378.146,1108.39,428.868C1135,485.759,1195.653,520.915,1258.458,520.439" fill="rgba(151, 57, 57, 0.4)" class="triangle-float2"></path><path d="M1041.023,669.785C1079.592,669.003,1108.309,638.085,1126.842,604.252C1144.517,571.986,1151.678,533.298,1133.221,501.473C1114.817,469.738,1077.708,456.455,1041.023,456.272C1003.964,456.087,966.456,468.871,947.218,500.546C927.313,533.319,930.369,574.321,948.958,607.858C968.175,642.528,1001.391,670.588,1041.023,669.785" fill="rgba(151, 57, 57, 0.4)" class="triangle-float1"></path></g><defs><mask id="SvgjsMask1032"><rect width="1440" height="560" fill="#ffffff"></rect></mask><style>
            @keyframes float1 {
                0%{transform: translate(0, 0)}
                50%{transform: translate(-10px, 0)}
                100%{transform: translate(0, 0)}
            }

            .triangle-float1 {
                animation: float1 5s infinite;
            }

            @keyframes float2 {
                0%{transform: translate(0, 0)}
                50%{transform: translate(-5px, -5px)}
                100%{transform: translate(0, 0)}
            }

            .triangle-float2 {
                animation: float2 4s infinite;
            }

            @keyframes float3 {
                0%{transform: translate(0, 0)}
                50%{transform: translate(0, -10px)}
                100%{transform: translate(0, 0)}
            }

            .triangle-float3 {
                animation: float3 6s infinite;
            }
        </style></defs></svg>